<svg id="canvas" width="782.762" height="170.599" viewBox="183.513 248.769 782.762 170.599" preserveAspectRatio="xMidYMid meet" class="h-full w-full max-w-4xl text-primary transition-opacity duration-300 opacity-100" xmlns="http://www.w3.org/2000/svg"><g id="canvas-strokes"><path d="M 193.39,252.24 C 192.39 252.96, 191.90 253.89, 191.30 256.09 C 190.70 258.29, 190.66 259.67, 190.40 263.25 C 190.13 266.84, 190.24 269.29, 189.99 274.00 C 189.74 278.71, 189.54 281.42, 189.15 286.80 C 188.76 292.17, 188.47 295.18, 188.05 300.89 C 187.63 306.59, 187.36 309.67, 187.06 315.31 C 186.76 320.94, 186.63 323.87, 186.56 329.07 C 186.48 334.28, 186.49 336.85, 186.69 341.33 C 186.88 345.81, 186.99 347.92, 187.54 351.48 C 188.10 355.05, 188.37 356.67, 189.44 359.17 C 190.51 361.68, 191.31 362.63, 192.91 364.03 C 194.52 365.42, 195.53 365.89, 197.46 366.17 C 199.40 366.45, 200.62 366.28, 202.60 365.42 C 204.58 364.56, 205.60 363.74, 207.37 361.88 C 209.15 360.03, 209.98 358.75, 211.48 356.15 C 212.98 353.54, 213.49 351.84, 214.86 348.87 C 216.24 345.90, 216.97 344.28, 218.36 341.30 C 219.75 338.33, 220.50 336.76, 221.82 333.98 C 223.13 331.19, 223.81 329.82, 224.94 327.38 C 226.07 324.94, 226.72 323.84, 227.46 321.77 C 228.21 319.71, 228.45 318.59, 228.69 317.08 C 228.92 315.57, 229.01 315.02, 228.65 314.23 C 228.30 313.44, 227.81 313.03, 226.90 313.12 C 225.98 313.21, 225.23 313.54, 224.08 314.69 C 222.94 315.84, 222.30 316.91, 221.18 318.86 C 220.07 320.82, 219.63 322.00, 218.52 324.45 C 217.42 326.91, 216.90 328.36, 215.65 331.15 C 214.41 333.94, 213.74 335.51, 212.31 338.39 C 210.88 341.27, 210.08 342.86, 208.50 345.55 C 206.92 348.24, 205.87 349.57, 204.40 351.84 C 202.94 354.11, 202.23 355.21, 201.17 356.88 C 200.10 358.55, 199.74 359.27, 199.08 360.20 C 198.41 361.12, 198.36 361.44, 197.85 361.51 C 197.34 361.59, 197.13 361.49, 196.54 360.58 C 195.95 359.67, 195.66 358.98, 194.90 356.96 C 194.14 354.94, 193.50 353.67, 192.74 350.48 C 191.98 347.28, 191.54 345.29, 191.10 341.01 C 190.65 336.73, 190.57 334.18, 190.52 329.08 C 190.46 323.98, 190.57 321.08, 190.84 315.50 C 191.12 309.92, 191.39 306.86, 191.90 301.20 C 192.42 295.54, 192.76 292.55, 193.42 287.21 C 194.07 281.88, 194.46 279.18, 195.16 274.52 C 195.86 269.86, 196.42 267.48, 196.90 263.93 C 197.38 260.37, 197.67 259.02, 197.54 256.74 C 197.41 254.46, 197.08 253.43, 196.25 252.53 C 195.42 251.62, 194.38 251.53, 193.39 252.24" style="stroke: white; fill: white;"/><path d="M 242.27,305.11 C 241.37 305.66, 241.11 306.27, 240.62 307.76 C 240.13 309.26, 239.83 310.25, 239.80 312.60 C 239.77 314.95, 239.94 316.62, 240.47 319.52 C 241.01 322.42, 241.60 324.07, 242.46 327.10 C 243.31 330.12, 243.62 331.83, 244.75 334.65 C 245.88 337.46, 246.58 338.87, 248.12 341.17 C 249.66 343.48, 250.53 344.57, 252.47 346.16 C 254.40 347.74, 255.53 348.41, 257.81 349.09 C 260.08 349.77, 261.40 349.91, 263.83 349.57 C 266.25 349.24, 267.58 348.78, 269.94 347.40 C 272.31 346.02, 273.60 345.04, 275.65 342.67 C 277.71 340.30, 278.51 338.61, 280.22 335.54 C 281.93 332.47, 282.75 330.60, 284.22 327.31 C 285.69 324.02, 286.46 322.18, 287.58 319.10 C 288.69 316.02, 289.28 314.41, 289.81 311.91 C 290.34 309.41, 290.45 308.15, 290.24 306.59 C 290.02 305.04, 289.55 304.46, 288.74 304.12 C 287.92 303.79, 286.95 303.94, 286.15 304.91 C 285.35 305.88, 284.84 306.89, 284.72 308.99 C 284.60 311.09, 284.88 312.60, 285.56 315.41 C 286.23 318.21, 287.15 319.91, 288.10 323.01 C 289.06 326.12, 289.44 327.89, 290.34 330.94 C 291.25 333.99, 291.57 335.59, 292.61 338.26 C 293.66 340.94, 294.32 342.18, 295.55 344.31 C 296.79 346.43, 297.40 347.50, 298.80 348.88 C 300.20 350.26, 301.22 350.75, 302.54 351.20 C 303.86 351.65, 304.62 351.55, 305.39 351.15 C 306.16 350.75, 306.38 349.98, 306.38 349.19 C 306.38 348.40, 305.94 348.07, 305.38 347.19 C 304.83 346.32, 304.40 346.01, 303.62 344.81 C 302.83 343.60, 302.31 342.98, 301.45 341.17 C 300.60 339.36, 300.20 338.19, 299.34 335.76 C 298.47 333.33, 297.92 331.91, 297.15 329.02 C 296.38 326.13, 295.95 324.40, 295.49 321.31 C 295.02 318.23, 295.24 316.36, 294.81 313.58 C 294.39 310.80, 294.21 309.36, 293.36 307.42 C 292.50 305.48, 291.77 304.70, 290.55 303.88 C 289.32 303.06, 288.39 303.00, 287.23 303.31 C 286.06 303.62, 285.56 304.05, 284.72 305.41 C 283.88 306.78, 283.73 307.86, 283.03 310.15 C 282.32 312.44, 282.13 313.99, 281.18 316.88 C 280.22 319.77, 279.63 321.59, 278.25 324.61 C 276.88 327.63, 275.98 329.38, 274.28 331.97 C 272.59 334.55, 271.46 335.66, 269.79 337.55 C 268.13 339.43, 267.39 340.25, 265.96 341.39 C 264.52 342.52, 263.90 342.86, 262.62 343.23 C 261.35 343.59, 260.78 343.58, 259.59 343.22 C 258.41 342.85, 257.82 342.51, 256.71 341.39 C 255.60 340.26, 255.03 339.45, 254.04 337.58 C 253.06 335.72, 252.60 334.50, 251.78 332.05 C 250.97 329.60, 250.49 328.09, 249.97 325.32 C 249.46 322.55, 249.53 320.89, 249.21 318.19 C 248.88 315.48, 248.81 313.94, 248.36 311.79 C 247.91 309.64, 247.59 308.78, 246.94 307.42 C 246.29 306.07, 246.05 305.47, 245.12 305.01 C 244.18 304.55, 243.17 304.56, 242.27 305.11" style="stroke: white; fill: white;"/><path d="M 321.59,309.29 C 321.78 310.09, 321.85 310.44, 322.64 311.09 C 323.43 311.73, 323.96 312.13, 325.54 312.51 C 327.13 312.89, 328.18 312.93, 330.57 313.00 C 332.96 313.08, 334.58 312.94, 337.48 312.88 C 340.37 312.83, 342.09 312.65, 345.03 312.73 C 347.97 312.80, 349.56 313.02, 352.16 313.24 C 354.77 313.47, 356.10 313.66, 358.04 313.85 C 359.98 314.04, 360.87 314.21, 361.86 314.22 C 362.85 314.22, 363.16 313.92, 363.00 313.86 C 362.85 313.80, 362.44 313.49, 361.07 313.93 C 359.70 314.38, 358.55 314.69, 356.13 316.08 C 353.71 317.48, 352.21 318.92, 348.98 320.89 C 345.76 322.86, 343.59 324.01, 340.01 325.94 C 336.42 327.87, 334.24 328.80, 331.06 330.55 C 327.87 332.29, 326.04 332.86, 324.07 334.67 C 322.09 336.48, 321.46 337.69, 321.18 339.62 C 320.90 341.54, 321.26 342.71, 322.66 344.29 C 324.06 345.88, 325.36 346.86, 328.19 347.55 C 331.02 348.23, 333.01 347.76, 336.82 347.70 C 340.63 347.64, 342.97 347.43, 347.23 347.24 C 351.50 347.05, 353.93 346.92, 358.14 346.76 C 362.35 346.59, 364.53 346.52, 368.28 346.42 C 372.03 346.32, 373.98 346.59, 376.87 346.27 C 379.77 345.95, 380.95 345.50, 382.76 344.83 C 384.58 344.16, 385.36 343.70, 385.93 342.91 C 386.50 342.12, 386.35 341.47, 385.60 340.89 C 384.85 340.32, 384.05 340.28, 382.19 340.05 C 380.34 339.81, 379.18 339.56, 376.33 339.72 C 373.48 339.88, 371.62 340.51, 367.95 340.86 C 364.27 341.20, 362.10 341.32, 357.95 341.46 C 353.80 341.59, 351.36 341.67, 347.20 341.54 C 343.03 341.41, 340.69 341.18, 337.12 340.80 C 333.55 340.42, 331.80 339.71, 329.34 339.63 C 326.88 339.54, 325.82 340.11, 324.81 340.37 C 323.80 340.64, 323.72 341.06, 324.31 340.95 C 324.89 340.84, 325.80 340.81, 327.75 339.80 C 329.70 338.80, 331.07 337.64, 334.07 335.92 C 337.07 334.20, 339.15 333.02, 342.76 331.20 C 346.36 329.38, 348.58 328.40, 352.10 326.81 C 355.63 325.22, 357.74 324.86, 360.39 323.24 C 363.03 321.62, 364.10 320.60, 365.34 318.72 C 366.57 316.83, 366.76 315.62, 366.57 313.81 C 366.39 312.00, 365.82 310.99, 364.43 309.65 C 363.04 308.31, 361.89 307.89, 359.61 307.10 C 357.33 306.32, 355.86 306.12, 353.03 305.72 C 350.20 305.32, 348.50 305.37, 345.46 305.11 C 342.41 304.85, 340.69 304.68, 337.78 304.41 C 334.87 304.15, 333.32 303.89, 330.91 303.79 C 328.50 303.68, 327.37 303.58, 325.72 303.90 C 324.08 304.21, 323.48 304.73, 322.67 305.36 C 321.86 306.00, 321.90 306.29, 321.68 307.07 C 321.47 307.86, 321.39 308.49, 321.59 309.29" style="stroke: white; fill: white;"/><path d="M 385.56,319.01 C 384.72 319.47, 384.42 319.85, 383.99 320.99 C 383.55 322.13, 383.35 322.96, 383.39 324.71 C 383.43 326.46, 383.74 327.61, 384.18 329.74 C 384.63 331.87, 385.09 333.13, 385.62 335.35 C 386.16 337.56, 386.40 338.80, 386.87 340.79 C 387.34 342.78, 387.47 343.83, 387.97 345.29 C 388.46 346.76, 388.80 347.27, 389.35 348.11 C 389.91 348.95, 390.11 349.23, 390.74 349.50 C 391.36 349.76, 391.85 349.77, 392.46 349.45 C 393.06 349.12, 393.30 348.86, 393.76 347.88 C 394.22 346.90, 394.59 346.20, 394.74 344.55 C 394.90 342.90, 394.70 341.76, 394.54 339.62 C 394.37 337.48, 394.22 336.18, 393.94 333.85 C 393.66 331.52, 393.53 330.13, 393.14 327.98 C 392.74 325.82, 392.55 324.67, 391.95 323.08 C 391.36 321.50, 390.91 320.92, 390.17 320.04 C 389.42 319.17, 389.15 318.92, 388.23 318.72 C 387.31 318.51, 386.41 318.56, 385.56 319.01" style="stroke: white; fill: white;"/><path d="M 380.70,278.45 C 381.68 278.69, 381.96 278.53, 381.89 278.93 C 381.81 279.33, 380.78 280.34, 380.34 280.45 C 379.90 280.57, 379.80 280.55, 379.70 279.49 C 379.60 278.43, 380.19 276.21, 379.86 275.14 C 379.53 274.07, 378.83 273.90, 378.06 274.14 C 377.29 274.37, 376.22 275.60, 376.01 276.31 C 375.80 277.02, 376.07 277.26, 377.01 277.69 C 377.95 278.12, 379.73 278.20, 380.70 278.45" style="stroke: white; fill: white;"/><path d="M 414.17,261.34 C 413.34 262.01, 413.13 262.66, 412.75 264.44 C 412.37 266.22, 412.07 267.35, 412.27 270.22 C 412.47 273.09, 413.25 274.93, 413.74 278.77 C 414.23 282.60, 414.41 284.89, 414.71 289.39 C 415.01 293.90, 415.05 296.48, 415.25 301.31 C 415.46 306.14, 415.50 308.78, 415.73 313.55 C 415.96 318.32, 416.04 320.76, 416.41 325.16 C 416.78 329.56, 417.00 331.72, 417.60 335.54 C 418.21 339.36, 418.40 341.26, 419.44 344.25 C 420.47 347.25, 421.32 348.61, 422.76 350.52 C 424.21 352.43, 425.26 353.05, 426.65 353.80 C 428.04 354.56, 428.89 354.54, 429.72 354.30 C 430.54 354.06, 430.79 353.37, 430.79 352.61 C 430.79 351.84, 430.32 351.58, 429.74 350.49 C 429.15 349.41, 428.77 348.87, 427.88 347.19 C 426.98 345.50, 426.28 344.61, 425.25 342.08 C 424.22 339.55, 423.55 338.01, 422.71 334.53 C 421.88 331.05, 421.57 328.93, 421.07 324.69 C 420.57 320.44, 420.46 318.03, 420.22 313.32 C 419.97 308.62, 419.94 305.99, 419.86 301.18 C 419.79 296.36, 419.82 293.79, 419.86 289.24 C 419.90 284.70, 419.96 282.38, 420.07 278.46 C 420.18 274.53, 420.63 272.54, 420.41 269.62 C 420.18 266.71, 419.64 265.59, 418.94 263.88 C 418.24 262.17, 417.87 261.57, 416.92 261.06 C 415.97 260.56, 415.01 260.66, 414.17 261.34" style="stroke: white; fill: white;"/><path d="M 479.05,322.68 C 479.32 321.58, 479.12 320.65, 478.20 319.35 C 477.28 318.04, 476.46 317.15, 474.46 316.16 C 472.46 315.16, 470.96 314.60, 468.20 314.38 C 465.44 314.15, 463.71 314.25, 460.65 315.03 C 457.59 315.80, 455.88 316.62, 452.88 318.25 C 449.88 319.87, 448.21 320.90, 445.65 323.16 C 443.09 325.42, 441.64 326.77, 440.08 329.54 C 438.52 332.32, 437.98 334.10, 437.84 337.03 C 437.70 339.97, 438.05 341.63, 439.38 344.21 C 440.71 346.79, 441.88 348.18, 444.49 349.92 C 447.11 351.67, 449.01 352.24, 452.45 352.93 C 455.89 353.61, 457.96 353.57, 461.68 353.36 C 465.41 353.16, 467.47 352.83, 471.07 351.89 C 474.68 350.96, 476.61 350.29, 479.72 348.67 C 482.82 347.06, 484.40 346.06, 486.59 343.81 C 488.77 341.55, 489.60 340.09, 490.63 337.40 C 491.65 334.71, 491.90 333.11, 491.70 330.37 C 491.49 327.63, 490.94 326.07, 489.61 323.70 C 488.28 321.32, 487.12 320.16, 485.05 318.48 C 482.98 316.81, 481.59 316.13, 479.25 315.31 C 476.91 314.48, 475.41 314.23, 473.35 314.37 C 471.30 314.51, 470.18 315.20, 468.98 316.02 C 467.77 316.84, 467.46 317.58, 467.33 318.46 C 467.20 319.33, 467.71 319.91, 468.33 320.40 C 468.95 320.89, 469.48 320.73, 470.43 320.91 C 471.38 321.09, 471.85 321.02, 473.09 321.29 C 474.34 321.55, 475.17 321.64, 476.66 322.24 C 478.15 322.85, 479.13 323.30, 480.54 324.32 C 481.95 325.33, 482.75 326.00, 483.71 327.33 C 484.66 328.66, 485.10 329.43, 485.31 330.98 C 485.52 332.52, 485.44 333.43, 484.75 335.05 C 484.05 336.68, 483.44 337.52, 481.83 339.11 C 480.22 340.69, 479.16 341.64, 476.69 342.98 C 474.23 344.32, 472.56 345.04, 469.51 345.81 C 466.46 346.59, 464.57 346.81, 461.45 346.86 C 458.32 346.90, 456.56 346.62, 453.90 346.03 C 451.24 345.44, 449.99 344.87, 448.16 343.91 C 446.33 342.94, 445.57 342.47, 444.74 341.20 C 443.92 339.94, 443.78 339.19, 444.05 337.59 C 444.32 336.00, 444.83 335.04, 446.09 333.25 C 447.34 331.45, 448.29 330.29, 450.33 328.61 C 452.36 326.93, 453.82 326.00, 456.25 324.85 C 458.68 323.70, 460.23 323.35, 462.50 322.87 C 464.76 322.39, 465.80 322.31, 467.57 322.44 C 469.33 322.57, 470.00 323.10, 471.33 323.52 C 472.65 323.94, 473.09 324.28, 474.20 324.54 C 475.30 324.80, 475.89 325.19, 476.86 324.81 C 477.83 324.44, 478.79 323.77, 479.05 322.68" style="stroke: white; fill: white;"/><path d="M 503.57,318.73 C 502.67 319.28, 502.41 319.89, 501.94 321.26 C 501.48 322.62, 501.31 323.55, 501.25 325.54 C 501.18 327.53, 501.34 328.90, 501.61 331.20 C 501.88 333.49, 502.22 334.85, 502.60 337.01 C 502.98 339.16, 502.93 340.31, 503.49 341.99 C 504.05 343.68, 504.35 344.52, 505.40 345.43 C 506.46 346.33, 507.39 346.62, 508.78 346.51 C 510.16 346.41, 511.07 346.07, 512.32 344.89 C 513.58 343.72, 514.07 342.72, 515.07 340.66 C 516.08 338.59, 516.21 337.04, 517.34 334.55 C 518.47 332.06, 519.11 330.52, 520.72 328.21 C 522.32 325.90, 523.40 324.74, 525.38 323.01 C 527.35 321.28, 528.51 320.60, 530.59 319.56 C 532.66 318.52, 533.80 318.14, 535.75 317.81 C 537.69 317.47, 538.64 317.48, 540.32 317.89 C 542.00 318.30, 542.79 318.72, 544.15 319.85 C 545.51 320.99, 546.12 321.75, 547.13 323.54 C 548.14 325.33, 548.53 326.49, 549.21 328.82 C 549.89 331.14, 550.10 332.57, 550.54 335.15 C 550.99 337.73, 551.07 339.24, 551.44 341.71 C 551.80 344.18, 551.95 345.51, 552.36 347.50 C 552.77 349.50, 552.92 350.38, 553.49 351.69 C 554.05 353.00, 554.52 353.44, 555.17 354.04 C 555.83 354.65, 556.19 354.74, 556.76 354.73 C 557.34 354.72, 557.68 354.34, 558.04 353.97 C 558.41 353.61, 558.36 353.55, 558.60 352.90 C 558.83 352.25, 559.08 351.96, 559.21 350.72 C 559.34 349.48, 559.29 348.67, 559.24 346.70 C 559.18 344.73, 559.16 343.43, 558.95 340.86 C 558.75 338.29, 558.70 336.71, 558.21 333.83 C 557.72 330.95, 557.49 329.28, 556.50 326.45 C 555.50 323.61, 554.90 322.05, 553.25 319.65 C 551.60 317.26, 550.52 316.08, 548.24 314.46 C 545.97 312.83, 544.57 312.18, 541.88 311.52 C 539.20 310.86, 537.68 310.82, 534.81 311.16 C 531.95 311.50, 530.35 311.94, 527.56 313.24 C 524.76 314.53, 523.34 315.55, 520.82 317.65 C 518.30 319.74, 517.13 321.15, 514.94 323.70 C 512.76 326.26, 511.61 327.77, 509.89 330.43 C 508.17 333.09, 507.20 334.63, 506.34 337.00 C 505.49 339.38, 505.42 340.72, 505.61 342.31 C 505.81 343.89, 506.51 344.51, 507.32 344.94 C 508.13 345.37, 508.97 345.18, 509.65 344.45 C 510.33 343.71, 510.48 342.90, 510.71 341.27 C 510.94 339.63, 510.79 338.46, 510.78 336.27 C 510.77 334.09, 510.82 332.65, 510.65 330.34 C 510.49 328.02, 510.38 326.63, 509.94 324.70 C 509.49 322.77, 509.13 321.91, 508.43 320.67 C 507.73 319.43, 507.42 318.89, 506.44 318.50 C 505.47 318.11, 504.47 318.17, 503.57 318.73" style="stroke: white; fill: white;"/><path d="M 599.11,327.86 C 599.81 326.97, 599.99 326.01, 599.68 324.53 C 599.37 323.05, 598.94 321.97, 597.56 320.46 C 596.18 318.95, 595.03 317.97, 592.77 316.97 C 590.52 315.97, 589.05 315.65, 586.29 315.46 C 583.54 315.28, 581.88 315.37, 578.98 316.03 C 576.08 316.69, 574.39 317.30, 571.80 318.75 C 569.21 320.21, 567.82 321.26, 566.04 323.30 C 564.25 325.35, 563.45 326.68, 562.88 328.96 C 562.30 331.25, 562.38 332.68, 563.18 334.74 C 563.98 336.81, 564.90 337.92, 566.89 339.29 C 568.87 340.66, 570.37 341.16, 573.11 341.57 C 575.85 341.99, 577.59 341.80, 580.59 341.35 C 583.59 340.89, 585.28 340.31, 588.12 339.28 C 590.96 338.26, 592.45 337.51, 594.78 336.23 C 597.11 334.94, 598.28 334.14, 599.79 332.85 C 601.29 331.56, 601.93 330.75, 602.32 329.76 C 602.72 328.77, 602.27 327.99, 601.75 327.89 C 601.22 327.79, 600.26 327.98, 599.70 329.26 C 599.14 330.55, 598.71 331.78, 598.95 334.30 C 599.20 336.81, 600.00 338.46, 600.92 341.84 C 601.84 345.23, 602.55 347.27, 603.55 351.22 C 604.55 355.17, 605.09 357.40, 605.93 361.59 C 606.76 365.78, 607.20 368.03, 607.70 372.17 C 608.20 376.32, 608.40 378.49, 608.42 382.32 C 608.44 386.15, 608.33 388.08, 607.80 391.31 C 607.26 394.55, 606.81 396.02, 605.73 398.48 C 604.66 400.95, 603.98 401.94, 602.42 403.65 C 600.87 405.36, 600.00 405.99, 597.96 407.03 C 595.92 408.08, 594.71 408.40, 592.22 408.87 C 589.73 409.33, 588.23 409.47, 585.52 409.36 C 582.81 409.25, 581.28 409.02, 578.67 408.31 C 576.06 407.59, 574.69 407.00, 572.46 405.78 C 570.23 404.56, 569.13 403.78, 567.51 402.22 C 565.90 400.66, 565.19 399.79, 564.37 397.99 C 563.55 396.19, 563.35 395.24, 563.41 393.20 C 563.48 391.16, 563.71 390.11, 564.69 387.79 C 565.66 385.46, 566.28 384.08, 568.28 381.59 C 570.28 379.09, 571.65 377.68, 574.67 375.31 C 577.69 372.94, 579.60 371.73, 583.38 369.73 C 587.16 367.74, 589.42 366.84, 593.57 365.33 C 597.73 363.82, 600.08 363.20, 604.17 362.20 C 608.25 361.19, 610.37 360.82, 613.99 360.29 C 617.61 359.76, 619.40 359.85, 622.27 359.54 C 625.14 359.23, 626.36 359.00, 628.32 358.75 C 630.29 358.50, 630.94 358.49, 632.11 358.29 C 633.29 358.08, 633.63 357.99, 634.20 357.73 C 634.77 357.47, 634.67 357.32, 634.96 356.99 C 635.25 356.65, 635.26 356.38, 635.64 356.07 C 636.02 355.76, 636.29 355.17, 636.87 355.44 C 637.45 355.71, 638.39 357.20, 638.54 357.42 C 638.69 357.65, 638.73 357.30, 637.63 356.58 C 636.54 355.86, 634.23 354.41, 633.07 353.81 C 631.90 353.20, 631.74 353.16, 631.80 353.55 C 631.86 353.95, 632.76 355.38, 633.35 355.78 C 633.94 356.18, 634.42 355.80, 634.76 355.56 C 635.11 355.32, 635.16 354.91, 635.06 354.56 C 634.96 354.22, 634.84 354.09, 634.26 353.82 C 633.67 353.54, 633.40 353.39, 632.14 353.17 C 630.87 352.96, 630.07 352.73, 627.93 352.75 C 625.79 352.77, 624.43 352.82, 621.45 353.28 C 618.47 353.74, 616.71 354.21, 613.01 355.05 C 609.30 355.89, 607.14 356.32, 602.93 357.48 C 598.72 358.64, 596.32 359.28, 591.95 360.84 C 587.59 362.41, 585.22 363.29, 581.12 365.31 C 577.02 367.33, 574.93 368.49, 571.44 370.95 C 567.95 373.40, 566.26 374.78, 563.66 377.60 C 561.07 380.43, 559.85 381.98, 558.46 385.07 C 557.07 388.17, 556.76 389.96, 556.72 393.07 C 556.68 396.18, 557.10 397.82, 558.27 400.63 C 559.44 403.43, 560.42 404.85, 562.59 407.11 C 564.75 409.36, 566.25 410.34, 569.11 411.90 C 571.96 413.47, 573.64 414.07, 576.86 414.94 C 580.08 415.82, 581.86 416.13, 585.21 416.29 C 588.55 416.45, 590.40 416.41, 593.59 415.74 C 596.79 415.07, 598.45 414.52, 601.19 412.94 C 603.93 411.36, 605.27 410.30, 607.30 407.86 C 609.33 405.43, 610.16 403.90, 611.35 400.75 C 612.54 397.59, 612.82 395.79, 613.26 392.08 C 613.70 388.38, 613.67 386.33, 613.55 382.23 C 613.42 378.13, 613.15 375.89, 612.64 371.58 C 612.13 367.27, 611.69 364.99, 611.01 360.69 C 610.33 356.39, 609.82 354.12, 609.24 350.09 C 608.66 346.06, 608.41 343.95, 608.11 340.55 C 607.80 337.15, 608.15 335.54, 607.71 333.09 C 607.27 330.64, 606.89 329.72, 605.90 328.29 C 604.92 326.86, 604.08 326.46, 602.79 325.95 C 601.51 325.44, 600.82 325.50, 599.47 325.74 C 598.12 325.99, 597.66 326.42, 596.06 327.17 C 594.46 327.92, 593.56 328.59, 591.46 329.48 C 589.37 330.38, 588.03 330.92, 585.59 331.63 C 583.16 332.35, 581.67 332.68, 579.28 333.07 C 576.90 333.46, 575.59 333.52, 573.69 333.59 C 571.78 333.67, 570.89 333.62, 569.75 333.45 C 568.61 333.28, 568.22 333.21, 567.96 332.74 C 567.71 332.27, 567.84 331.95, 568.47 331.10 C 569.10 330.25, 569.70 329.56, 571.10 328.49 C 572.51 327.41, 573.54 326.67, 575.47 325.74 C 577.41 324.82, 578.71 324.35, 580.79 323.85 C 582.87 323.36, 584.12 323.22, 585.86 323.28 C 587.61 323.34, 588.31 323.59, 589.52 324.16 C 590.74 324.73, 591.05 325.40, 591.93 326.13 C 592.80 326.86, 593.05 327.24, 593.90 327.81 C 594.75 328.38, 595.14 328.96, 596.18 328.97 C 597.22 328.98, 598.41 328.75, 599.11 327.86" style="stroke: white; fill: white;"/><path d="M 669.75,281.46 C 670.90 281.67, 671.69 281.02, 672.93 280.45 C 674.17 279.87, 674.74 279.37, 675.95 278.59 C 677.15 277.82, 677.79 277.15, 678.96 276.56 C 680.13 275.97, 680.66 275.75, 681.80 275.66 C 682.94 275.58, 683.61 275.72, 684.68 276.14 C 685.74 276.56, 686.30 276.87, 687.13 277.77 C 687.96 278.68, 688.38 279.18, 688.82 280.68 C 689.26 282.17, 689.38 283.07, 689.34 285.24 C 689.30 287.42, 689.34 288.74, 688.63 291.55 C 687.92 294.37, 687.36 296.09, 685.79 299.32 C 684.23 302.54, 683.03 304.41, 680.81 307.67 C 678.59 310.93, 677.11 312.64, 674.67 315.62 C 672.24 318.60, 670.63 319.92, 668.64 322.56 C 666.66 325.21, 665.59 326.41, 664.75 328.83 C 663.91 331.24, 663.85 332.51, 664.45 334.62 C 665.06 336.73, 665.78 337.87, 667.78 339.37 C 669.78 340.86, 671.29 341.51, 674.45 342.08 C 677.61 342.65, 679.65 342.23, 683.60 342.23 C 687.54 342.23, 689.84 342.10, 694.17 342.07 C 698.50 342.03, 700.92 342.01, 705.26 342.05 C 709.60 342.09, 711.89 342.12, 715.88 342.29 C 719.86 342.46, 721.82 342.64, 725.19 342.89 C 728.55 343.14, 730.18 343.50, 732.70 343.52 C 735.23 343.54, 736.23 343.27, 737.80 343.00 C 739.38 342.72, 739.74 342.59, 740.58 342.14 C 741.42 341.69, 741.70 341.29, 742.00 340.76 C 742.30 340.23, 742.30 339.78, 742.07 339.49 C 741.84 339.19, 741.12 339.41, 740.86 339.30 C 740.61 339.20, 740.95 339.18, 740.79 338.95 C 740.64 338.72, 740.69 338.42, 740.08 338.16 C 739.46 337.90, 739.14 337.86, 737.70 337.64 C 736.26 337.42, 735.35 337.18, 732.88 337.06 C 730.42 336.95, 728.77 337.05, 725.39 337.06 C 722.01 337.07, 720.01 337.12, 716.00 337.11 C 711.98 337.10, 709.68 337.09, 705.34 337.00 C 700.99 336.91, 698.56 336.89, 694.28 336.68 C 690.00 336.46, 687.67 336.35, 683.95 335.92 C 680.22 335.49, 678.37 334.89, 675.66 334.52 C 672.94 334.16, 671.81 334.29, 670.37 334.09 C 668.94 333.90, 668.58 334.11, 668.49 333.55 C 668.39 333.00, 668.86 332.77, 669.90 331.33 C 670.93 329.89, 671.84 328.80, 673.68 326.35 C 675.52 323.91, 676.76 322.20, 679.10 319.10 C 681.45 316.00, 682.99 314.24, 685.39 310.84 C 687.78 307.45, 689.13 305.57, 691.09 302.11 C 693.05 298.66, 694.03 296.89, 695.20 293.55 C 696.36 290.21, 696.83 288.46, 696.91 285.41 C 696.99 282.36, 696.54 280.78, 695.59 278.29 C 694.63 275.81, 693.78 274.69, 692.12 273.00 C 690.46 271.31, 689.34 270.70, 687.29 269.84 C 685.24 268.97, 684.09 268.79, 681.88 268.66 C 679.67 268.54, 678.38 268.58, 676.24 269.22 C 674.09 269.87, 672.82 270.62, 671.16 271.89 C 669.50 273.15, 668.72 274.06, 667.93 275.57 C 667.14 277.08, 666.84 278.25, 667.21 279.42 C 667.57 280.60, 668.61 281.26, 669.75 281.46" style="stroke: white; fill: white;"/><path d="M 783.99,294.35 C 784.11 293.36, 783.87 292.70, 782.95 291.83 C 782.03 290.97, 781.24 290.39, 779.39 290.03 C 777.54 289.66, 776.22 289.50, 773.71 290.00 C 771.20 290.50, 769.64 290.97, 766.84 292.52 C 764.03 294.07, 762.54 295.37, 759.68 297.75 C 756.82 300.13, 755.16 301.53, 752.55 304.43 C 749.93 307.32, 748.49 308.99, 746.61 312.23 C 744.72 315.48, 743.76 317.30, 743.12 320.64 C 742.49 323.98, 742.56 325.83, 743.43 328.92 C 744.31 332.01, 745.18 333.70, 747.51 336.08 C 749.83 338.45, 751.68 339.44, 755.08 340.81 C 758.47 342.17, 760.55 342.49, 764.47 342.91 C 768.40 343.33, 770.62 343.24, 774.71 342.91 C 778.81 342.58, 781.06 342.24, 784.95 341.24 C 788.84 340.25, 790.83 339.56, 794.17 337.94 C 797.52 336.32, 799.19 335.40, 801.68 333.14 C 804.17 330.88, 805.31 329.44, 806.62 326.63 C 807.94 323.83, 808.30 322.11, 808.25 319.11 C 808.20 316.11, 807.71 314.40, 806.36 311.62 C 805.01 308.84, 803.87 307.42, 801.51 305.22 C 799.15 303.03, 797.43 302.18, 794.56 300.65 C 791.69 299.13, 789.99 298.42, 787.15 297.59 C 784.31 296.75, 782.67 296.62, 780.37 296.49 C 778.07 296.35, 777.09 296.59, 775.66 296.92 C 774.22 297.24, 773.85 297.48, 773.19 298.10 C 772.52 298.73, 772.40 299.42, 772.34 300.04 C 772.27 300.65, 772.55 301.22, 772.85 301.18 C 773.15 301.13, 773.71 299.99, 773.85 299.83 C 773.98 299.66, 773.54 299.99, 773.54 300.36 C 773.54 300.72, 773.42 301.23, 773.84 301.65 C 774.26 302.08, 774.52 302.15, 775.62 302.49 C 776.72 302.83, 777.49 302.86, 779.34 303.35 C 781.18 303.84, 782.50 304.15, 784.86 304.94 C 787.21 305.73, 788.78 306.10, 791.12 307.28 C 793.46 308.46, 794.71 309.31, 796.54 310.83 C 798.38 312.35, 799.24 313.19, 800.31 314.89 C 801.37 316.59, 801.77 317.53, 801.88 319.33 C 801.99 321.13, 801.77 322.06, 800.87 323.89 C 799.98 325.73, 799.26 326.74, 797.39 328.51 C 795.53 330.28, 794.32 331.29, 791.55 332.76 C 788.79 334.22, 787.00 334.94, 783.55 335.85 C 780.10 336.76, 777.98 337.07, 774.31 337.30 C 770.64 337.53, 768.56 337.48, 765.21 336.99 C 761.86 336.51, 760.15 336.01, 757.55 334.88 C 754.94 333.74, 753.82 332.86, 752.18 331.33 C 750.53 329.80, 749.88 329.10, 749.32 327.22 C 748.76 325.33, 748.86 324.28, 749.38 321.90 C 749.90 319.52, 750.37 317.97, 751.91 315.32 C 753.46 312.68, 754.71 311.10, 757.08 308.68 C 759.45 306.25, 761.08 304.97, 763.77 303.21 C 766.45 301.45, 768.17 300.89, 770.51 299.85 C 772.86 298.82, 773.86 298.46, 775.50 298.04 C 777.14 297.61, 777.69 297.84, 778.72 297.72 C 779.75 297.61, 779.90 297.64, 780.63 297.46 C 781.36 297.27, 781.68 297.41, 782.36 296.79 C 783.03 296.17, 783.87 295.35, 783.99 294.35" style="stroke: white; fill: white;"/><path d="M 856.49,299.81 C 856.15 298.80, 855.62 298.26, 854.15 297.53 C 852.67 296.81, 851.59 296.29, 849.11 296.20 C 846.63 296.11, 844.87 296.22, 841.75 297.10 C 838.63 297.98, 836.87 298.97, 833.51 300.61 C 830.16 302.25, 828.23 303.24, 824.96 305.30 C 821.70 307.36, 819.88 308.48, 817.17 310.91 C 814.46 313.34, 812.95 314.65, 811.43 317.43 C 809.91 320.21, 809.53 321.93, 809.56 324.80 C 809.59 327.67, 810.00 329.27, 811.58 331.78 C 813.16 334.29, 814.51 335.63, 817.47 337.33 C 820.44 339.03, 822.55 339.47, 826.40 340.28 C 830.25 341.10, 832.49 341.25, 836.72 341.42 C 840.96 341.60, 843.32 341.52, 847.56 341.17 C 851.79 340.82, 854.07 340.47, 857.90 339.66 C 861.73 338.86, 863.66 338.46, 866.72 337.15 C 869.79 335.83, 871.21 335.04, 873.21 333.09 C 875.20 331.14, 875.95 329.84, 876.69 327.41 C 877.43 324.98, 877.45 323.50, 876.91 320.94 C 876.38 318.37, 875.65 316.92, 874.01 314.58 C 872.37 312.23, 871.02 311.10, 868.71 309.21 C 866.39 307.32, 864.90 306.51, 862.44 305.14 C 859.97 303.77, 858.53 303.20, 856.38 302.36 C 854.23 301.52, 853.22 301.21, 851.69 300.94 C 850.17 300.67, 849.64 300.89, 848.77 301.01 C 847.90 301.13, 847.77 301.18, 847.34 301.53 C 846.92 301.89, 846.69 302.22, 846.66 302.79 C 846.63 303.36, 846.69 303.63, 847.20 304.39 C 847.71 305.15, 848.02 305.69, 849.23 306.61 C 850.43 307.52, 851.38 307.90, 853.22 308.97 C 855.05 310.04, 856.32 310.63, 858.41 311.95 C 860.50 313.27, 861.73 314.08, 863.67 315.57 C 865.60 317.05, 866.67 317.93, 868.10 319.37 C 869.54 320.82, 870.20 321.51, 870.85 322.81 C 871.51 324.10, 871.70 324.67, 871.38 325.85 C 871.06 327.02, 870.68 327.56, 869.25 328.69 C 867.83 329.81, 866.77 330.34, 864.25 331.45 C 861.73 332.57, 860.07 333.37, 856.64 334.24 C 853.22 335.12, 851.03 335.52, 847.12 335.84 C 843.20 336.16, 840.91 336.17, 837.07 335.85 C 833.22 335.54, 831.12 335.17, 827.88 334.25 C 824.64 333.33, 823.12 332.45, 820.86 331.24 C 818.60 330.04, 817.69 329.48, 816.57 328.20 C 815.44 326.93, 815.14 326.37, 815.23 324.88 C 815.33 323.40, 815.81 322.63, 817.04 320.77 C 818.28 318.90, 819.16 317.62, 821.39 315.58 C 823.63 313.55, 825.25 312.34, 828.21 310.59 C 831.16 308.83, 833.08 307.92, 836.16 306.81 C 839.24 305.70, 840.96 305.51, 843.61 305.04 C 846.26 304.57, 847.48 304.71, 849.43 304.45 C 851.38 304.19, 852.07 304.13, 853.35 303.75 C 854.64 303.38, 855.21 303.38, 855.84 302.60 C 856.47 301.81, 856.83 300.83, 856.49 299.81" style="stroke: white; fill: white;"/><path d="M 904.55,292.26 C 903.52 292.17, 902.91 292.44, 901.78 293.33 C 900.65 294.22, 899.93 294.95, 898.90 296.72 C 897.87 298.49, 897.38 299.83, 896.64 302.18 C 895.89 304.53, 895.65 305.96, 895.17 308.45 C 894.69 310.94, 894.43 312.25, 894.24 314.62 C 894.05 316.99, 893.95 318.18, 894.22 320.30 C 894.48 322.42, 894.70 323.46, 895.54 325.23 C 896.39 327.01, 897.00 327.89, 898.44 329.18 C 899.89 330.48, 900.86 331.01, 902.76 331.71 C 904.67 332.40, 905.77 332.50, 907.95 332.64 C 910.14 332.79, 911.31 332.64, 913.68 332.42 C 916.05 332.21, 917.32 331.93, 919.79 331.58 C 922.26 331.23, 923.56 330.96, 926.02 330.68 C 928.48 330.40, 929.77 330.25, 932.10 330.18 C 934.43 330.11, 935.60 330.08, 937.67 330.32 C 939.75 330.56, 940.72 330.77, 942.47 331.38 C 944.22 331.98, 945.00 332.38, 946.42 333.34 C 947.84 334.30, 948.45 334.87, 949.57 336.18 C 950.70 337.49, 951.17 338.27, 952.03 339.89 C 952.90 341.50, 953.27 342.42, 953.90 344.27 C 954.52 346.11, 954.79 347.14, 955.17 349.13 C 955.56 351.12, 955.69 352.19, 955.83 354.21 C 955.97 356.23, 955.96 357.29, 955.87 359.23 C 955.78 361.16, 955.66 362.15, 955.36 363.89 C 955.06 365.63, 954.85 366.48, 954.38 367.92 C 953.91 369.36, 953.61 370.01, 953.00 371.08 C 952.38 372.15, 952.03 372.58, 951.31 373.27 C 950.60 373.96, 950.23 374.19, 949.43 374.54 C 948.62 374.89, 948.22 374.92, 947.29 375.01 C 946.36 375.10, 945.83 375.08, 944.76 374.97 C 943.70 374.86, 943.20 374.82, 941.96 374.44 C 940.72 374.06, 940.09 373.78, 938.57 373.08 C 937.05 372.38, 936.23 371.96, 934.34 370.95 C 932.45 369.94, 931.51 369.26, 929.12 368.04 C 926.73 366.82, 925.36 366.24, 922.41 364.85 C 919.46 363.46, 917.85 362.69, 914.38 361.10 C 910.92 359.52, 909.05 358.63, 905.11 356.93 C 901.16 355.23, 899.02 354.33, 894.66 352.58 C 890.30 350.83, 887.94 349.93, 883.30 348.18 C 878.66 346.44, 876.14 345.55, 871.46 343.85 C 866.78 342.15, 864.27 341.32, 859.89 339.68 C 855.51 338.03, 853.29 337.24, 849.55 335.63 C 845.80 334.01, 844.01 333.10, 841.18 331.61 C 838.34 330.12, 837.12 329.26, 835.36 328.19 C 833.60 327.13, 832.92 326.93, 832.37 326.30 C 831.82 325.67, 831.84 325.60, 832.59 325.05 C 833.34 324.50, 834.10 324.54, 836.12 323.53 C 838.13 322.53, 839.35 321.40, 842.67 320.04 C 845.98 318.67, 848.18 317.83, 852.70 316.71 C 857.22 315.58, 860.00 315.13, 865.28 314.42 C 870.56 313.71, 873.57 313.47, 879.10 313.18 C 884.63 312.88, 887.61 312.87, 892.92 312.95 C 898.23 313.03, 900.97 313.21, 905.66 313.58 C 910.35 313.94, 912.63 314.20, 916.37 314.79 C 920.11 315.38, 921.74 316.04, 924.36 316.53 C 926.99 317.02, 928.00 316.99, 929.50 317.23 C 931.01 317.48, 931.21 317.65, 931.87 317.74 C 932.54 317.83, 932.53 317.69, 932.84 317.68 C 933.14 317.68, 933.00 317.80, 933.38 317.72 C 933.77 317.63, 934.44 317.59, 934.75 317.27 C 935.05 316.94, 935.05 316.68, 934.89 316.09 C 934.74 315.49, 934.73 315.07, 933.97 314.29 C 933.21 313.52, 932.81 312.99, 931.10 312.21 C 929.39 311.43, 928.27 310.87, 925.43 310.41 C 922.59 309.95, 920.79 310.11, 916.88 309.89 C 912.98 309.68, 910.68 309.53, 905.90 309.35 C 901.11 309.17, 898.36 309.04, 892.96 309.02 C 887.56 309.00, 884.54 309.02, 878.91 309.25 C 873.28 309.49, 870.24 309.69, 864.80 310.21 C 859.36 310.73, 856.54 311.06, 851.71 311.84 C 846.88 312.62, 844.53 313.04, 840.66 314.12 C 836.78 315.19, 834.82 315.53, 832.34 317.22 C 829.86 318.92, 829.05 320.37, 828.24 322.57 C 827.42 324.77, 827.52 326.14, 828.25 328.24 C 828.99 330.33, 829.80 331.35, 831.89 333.04 C 833.98 334.74, 835.54 335.29, 838.72 336.71 C 841.90 338.12, 843.84 338.68, 847.78 340.11 C 851.71 341.53, 853.94 342.27, 858.39 343.82 C 862.83 345.37, 865.33 346.19, 870.00 347.87 C 874.67 349.56, 877.16 350.46, 881.74 352.25 C 886.31 354.05, 888.62 355.00, 892.86 356.86 C 897.10 358.73, 899.17 359.69, 902.95 361.58 C 906.72 363.46, 908.48 364.45, 911.72 366.29 C 914.96 368.14, 916.42 369.11, 919.15 370.82 C 921.88 372.54, 923.02 373.46, 925.35 374.85 C 927.69 376.24, 928.76 376.75, 930.81 377.78 C 932.87 378.81, 933.77 379.28, 935.63 380.01 C 937.49 380.75, 938.38 381.05, 940.11 381.46 C 941.84 381.86, 942.63 381.97, 944.28 382.04 C 945.93 382.11, 946.77 382.12, 948.36 381.81 C 949.96 381.49, 950.79 381.21, 952.27 380.47 C 953.75 379.72, 954.49 379.23, 955.77 378.06 C 957.06 376.90, 957.67 376.19, 958.69 374.63 C 959.72 373.08, 960.16 372.16, 960.89 370.28 C 961.62 368.40, 961.90 367.36, 962.34 365.24 C 962.79 363.12, 962.95 361.97, 963.12 359.68 C 963.29 357.38, 963.33 356.15, 963.19 353.76 C 963.06 351.36, 962.92 350.09, 962.45 347.71 C 961.99 345.32, 961.68 344.10, 960.85 341.82 C 960.03 339.54, 959.56 338.39, 958.34 336.32 C 957.12 334.25, 956.38 333.22, 954.76 331.49 C 953.13 329.76, 952.18 328.99, 950.20 327.68 C 948.22 326.37, 947.14 325.80, 944.84 324.92 C 942.54 324.04, 941.24 323.71, 938.69 323.28 C 936.14 322.85, 934.75 322.83, 932.07 322.78 C 929.40 322.72, 927.98 322.82, 925.32 323.01 C 922.66 323.20, 921.26 323.43, 918.77 323.72 C 916.28 324.02, 915.02 324.23, 912.87 324.48 C 910.72 324.73, 909.70 324.85, 908.02 324.96 C 906.35 325.07, 905.65 325.13, 904.50 325.03 C 903.35 324.93, 902.95 324.89, 902.27 324.46 C 901.59 324.03, 901.37 323.78, 901.09 322.89 C 900.80 321.99, 900.76 321.42, 900.85 319.98 C 900.94 318.54, 901.09 317.60, 901.54 315.70 C 901.98 313.81, 902.35 312.63, 903.07 310.50 C 903.79 308.38, 904.37 307.17, 905.14 305.09 C 905.90 303.01, 906.45 301.85, 906.91 300.10 C 907.37 298.34, 907.43 297.57, 907.43 296.31 C 907.44 295.04, 907.52 294.57, 906.94 293.76 C 906.36 292.95, 905.58 292.34, 904.55 292.26" style="stroke: white; fill: white;"/></g></svg>